<mxfile host="app.diagrams.net" agent="Mozilla/5.0 (Windows NT 10.0; Win64; x64) AppleWebKit/537.36 (KHTML, like Gecko) Chrome/126.0.0.0 Safari/537.36" version="24.7.5">
  <diagram name="PÃ¡gina-1" id="6n34vRWElTbVIdjNLKZR">
    <mxGraphModel dx="1687" dy="878" grid="1" gridSize="10" guides="1" tooltips="1" connect="1" arrows="1" fold="1" page="1" pageScale="1" pageWidth="1390" pageHeight="980" math="0" shadow="0">
      <root>
        <mxCell id="0" />
        <mxCell id="1" parent="0" />
        <mxCell id="Yx_BQduRgDC8xpC3bmp0-1" value="AWS Cloud" style="points=[[0,0],[0.25,0],[0.5,0],[0.75,0],[1,0],[1,0.25],[1,0.5],[1,0.75],[1,1],[0.75,1],[0.5,1],[0.25,1],[0,1],[0,0.75],[0,0.5],[0,0.25]];outlineConnect=0;gradientColor=none;html=1;whiteSpace=wrap;fontSize=12;fontStyle=0;container=1;pointerEvents=0;collapsible=0;recursiveResize=0;shape=mxgraph.aws4.group;grIcon=mxgraph.aws4.group_aws_cloud;strokeColor=#232F3E;fillColor=none;verticalAlign=top;align=left;spacingLeft=30;fontColor=#232F3E;dashed=0;" vertex="1" parent="1">
          <mxGeometry x="280" y="90" width="1080" height="700" as="geometry" />
        </mxCell>
        <mxCell id="Yx_BQduRgDC8xpC3bmp0-5" value="" style="outlineConnect=0;dashed=0;verticalLabelPosition=bottom;verticalAlign=top;align=center;html=1;shape=mxgraph.aws3.api_gateway;fillColor=#D9A741;gradientColor=none;" vertex="1" parent="Yx_BQduRgDC8xpC3bmp0-1">
          <mxGeometry x="80" y="233.5" width="76.5" height="93" as="geometry" />
        </mxCell>
        <mxCell id="Yx_BQduRgDC8xpC3bmp0-6" value="" style="rhombus;whiteSpace=wrap;html=1;" vertex="1" parent="Yx_BQduRgDC8xpC3bmp0-1">
          <mxGeometry x="240" y="230" width="110" height="100" as="geometry" />
        </mxCell>
        <mxCell id="Yx_BQduRgDC8xpC3bmp0-9" value="" style="whiteSpace=wrap;html=1;fillColor=#f8cecc;strokeColor=#b85450;" vertex="1" parent="Yx_BQduRgDC8xpC3bmp0-1">
          <mxGeometry x="432" y="70" width="165" height="80" as="geometry" />
        </mxCell>
        <mxCell id="Yx_BQduRgDC8xpC3bmp0-8" value="" style="whiteSpace=wrap;html=1;fillColor=#f8cecc;strokeColor=#b85450;" vertex="1" parent="Yx_BQduRgDC8xpC3bmp0-1">
          <mxGeometry x="427" y="390" width="170" height="80" as="geometry" />
        </mxCell>
        <mxCell id="Yx_BQduRgDC8xpC3bmp0-10" value="" style="sketch=0;outlineConnect=0;fontColor=#232F3E;gradientColor=none;fillColor=#DD344C;strokeColor=none;dashed=0;verticalLabelPosition=bottom;verticalAlign=top;align=center;html=1;fontSize=12;fontStyle=0;aspect=fixed;pointerEvents=1;shape=mxgraph.aws4.role;" vertex="1" parent="Yx_BQduRgDC8xpC3bmp0-1">
          <mxGeometry x="200" y="574.5" width="78" height="44" as="geometry" />
        </mxCell>
        <mxCell id="Yx_BQduRgDC8xpC3bmp0-11" value="" style="outlineConnect=0;dashed=0;verticalLabelPosition=bottom;verticalAlign=top;align=center;html=1;shape=mxgraph.aws3.ec2;fillColor=#F58534;gradientColor=none;" vertex="1" parent="Yx_BQduRgDC8xpC3bmp0-1">
          <mxGeometry x="440" y="550" width="76.5" height="93" as="geometry" />
        </mxCell>
        <mxCell id="Yx_BQduRgDC8xpC3bmp0-13" value="" style="outlineConnect=0;dashed=0;verticalLabelPosition=bottom;verticalAlign=top;align=center;html=1;shape=mxgraph.aws3.lambda_function;fillColor=#F58534;gradientColor=none;" vertex="1" parent="Yx_BQduRgDC8xpC3bmp0-1">
          <mxGeometry x="960" y="410" width="69" height="72" as="geometry" />
        </mxCell>
        <mxCell id="Yx_BQduRgDC8xpC3bmp0-12" value="" style="outlineConnect=0;dashed=0;verticalLabelPosition=bottom;verticalAlign=top;align=center;html=1;shape=mxgraph.aws3.lambda_function;fillColor=#F58534;gradientColor=none;" vertex="1" parent="Yx_BQduRgDC8xpC3bmp0-1">
          <mxGeometry x="960" y="78" width="69" height="72" as="geometry" />
        </mxCell>
        <mxCell id="Yx_BQduRgDC8xpC3bmp0-14" value="" style="outlineConnect=0;dashed=0;verticalLabelPosition=bottom;verticalAlign=top;align=center;html=1;shape=mxgraph.aws3.cli;fillColor=#fa6800;fontColor=#000000;strokeColor=#C73500;" vertex="1" parent="Yx_BQduRgDC8xpC3bmp0-1">
          <mxGeometry x="680" y="550" width="72" height="82.5" as="geometry" />
        </mxCell>
        <mxCell id="Yx_BQduRgDC8xpC3bmp0-15" value="" style="rounded=1;whiteSpace=wrap;html=1;fillColor=#d0cee2;strokeColor=#56517e;" vertex="1" parent="Yx_BQduRgDC8xpC3bmp0-1">
          <mxGeometry x="690" y="250" width="120" height="60" as="geometry" />
        </mxCell>
        <mxCell id="Yx_BQduRgDC8xpC3bmp0-16" value="" style="whiteSpace=wrap;html=1;fillColor=#d0cee2;strokeColor=#56517e;" vertex="1" parent="Yx_BQduRgDC8xpC3bmp0-1">
          <mxGeometry x="790" y="550" width="120" height="120" as="geometry" />
        </mxCell>
        <mxCell id="Yx_BQduRgDC8xpC3bmp0-2" value="" style="sketch=0;pointerEvents=1;shadow=0;dashed=0;html=1;strokeColor=none;labelPosition=center;verticalLabelPosition=bottom;verticalAlign=top;outlineConnect=0;align=center;shape=mxgraph.office.users.user;fillColor=#7FBA42;" vertex="1" parent="1">
          <mxGeometry x="90" y="170" width="46" height="50" as="geometry" />
        </mxCell>
        <mxCell id="Yx_BQduRgDC8xpC3bmp0-3" value="" style="sketch=0;pointerEvents=1;shadow=0;dashed=0;html=1;strokeColor=none;labelPosition=center;verticalLabelPosition=bottom;verticalAlign=top;outlineConnect=0;align=center;shape=mxgraph.office.users.users;fillColor=#2072B8;" vertex="1" parent="1">
          <mxGeometry x="90" y="490" width="46" height="50" as="geometry" />
        </mxCell>
        <mxCell id="Yx_BQduRgDC8xpC3bmp0-4" value="" style="verticalLabelPosition=bottom;html=1;verticalAlign=top;align=center;strokeColor=#C73500;fillColor=#fa6800;shape=mxgraph.azure.user;fontColor=#000000;" vertex="1" parent="1">
          <mxGeometry x="88.5" y="680" width="47.5" height="50" as="geometry" />
        </mxCell>
      </root>
    </mxGraphModel>
  </diagram>
</mxfile>
